<svg width="246" height="236" viewBox="0 0 246 236" fill="none" xmlns="http://www.w3.org/2000/svg">
<path d="M54.1839 143.273C50.3067 143.273 47.1636 146.474 47.1636 150.423V162.833C47.1636 166.782 50.3067 169.983 54.1839 169.983C58.0612 169.983 61.2043 166.782 61.2043 162.833V150.423C61.2043 146.474 58.0622 143.273 54.1839 143.273Z" fill="#C2CFE0"/>
<path d="M82.2664 143.273C78.3892 143.273 75.2461 146.474 75.2461 150.423V162.833C75.2461 166.782 78.3892 169.983 82.2664 169.983C86.1437 169.983 89.2868 166.782 89.2868 162.833V150.423C89.2868 146.474 86.1447 143.273 82.2664 143.273Z" fill="#C2CFE0"/>
<path d="M110.35 143.273C106.473 143.273 103.33 146.474 103.33 150.423V162.833C103.33 166.782 106.473 169.983 110.35 169.983C114.227 169.983 117.37 166.782 117.37 162.833V150.423C117.37 146.474 114.227 143.273 110.35 143.273Z" fill="#C2CFE0"/>
<path d="M135.65 143.273C131.773 143.273 128.63 146.474 128.63 150.423V162.833C128.63 166.782 131.773 169.983 135.65 169.983C139.527 169.983 142.671 166.782 142.671 162.833V150.423C142.671 146.474 139.527 143.273 135.65 143.273Z" fill="#C2CFE0"/>
<path d="M163.734 143.273C159.856 143.273 156.713 146.474 156.713 150.423V162.833C156.713 166.782 159.856 169.983 163.734 169.983C167.611 169.983 170.754 166.782 170.754 162.833V150.423C170.754 146.474 167.611 143.273 163.734 143.273Z" fill="#C2CFE0"/>
<path d="M191.816 143.273C187.939 143.273 184.795 146.474 184.795 150.423V162.833C184.795 166.782 187.939 169.983 191.816 169.983C195.693 169.983 198.836 166.782 198.836 162.833V150.423C198.836 146.474 195.693 143.273 191.816 143.273Z" fill="#C2CFE0"/>
<path d="M54.1839 103.364C50.3067 103.364 47.1636 106.565 47.1636 110.514V122.924C47.1636 126.873 50.3067 130.073 54.1839 130.073C58.0612 130.073 61.2043 126.873 61.2043 122.924V110.514C61.2043 106.565 58.0622 103.364 54.1839 103.364Z" fill="#C2CFE0"/>
<path d="M82.2664 103.364C78.3892 103.364 75.2461 106.565 75.2461 110.514V122.924C75.2461 126.873 78.3892 130.073 82.2664 130.073C86.1437 130.073 89.2868 126.873 89.2868 122.924V110.514C89.2868 106.565 86.1447 103.364 82.2664 103.364Z" fill="#C2CFE0"/>
<path d="M110.35 103.364C106.473 103.364 103.33 106.565 103.33 110.514V122.924C103.33 126.873 106.473 130.073 110.35 130.073C114.227 130.073 117.37 126.873 117.37 122.924V110.514C117.37 106.565 114.227 103.364 110.35 103.364Z" fill="#C2CFE0"/>
<path d="M135.65 103.364C131.773 103.364 128.63 106.565 128.63 110.514V122.924C128.63 126.873 131.773 130.073 135.65 130.073C139.527 130.073 142.671 126.873 142.671 122.924V110.514C142.671 106.565 139.527 103.364 135.65 103.364Z" fill="#C2CFE0"/>
<path d="M163.734 103.364C159.856 103.364 156.713 106.565 156.713 110.514V122.924C156.713 126.873 159.856 130.073 163.734 130.073C167.611 130.073 170.754 126.873 170.754 122.924V110.514C170.754 106.565 167.611 103.364 163.734 103.364Z" fill="#C2CFE0"/>
<path d="M191.816 103.364C187.939 103.364 184.795 106.565 184.795 110.514V122.924C184.795 126.873 187.939 130.073 191.816 130.073C195.693 130.073 198.836 126.873 198.836 122.924V110.514C198.836 106.565 195.693 103.364 191.816 103.364Z" fill="#C2CFE0"/>
<path d="M94.9173 30.3379C91.0401 30.3379 87.897 33.5388 87.897 37.4873V49.8977C87.897 53.8462 91.0401 57.0471 94.9173 57.0471C98.7946 57.0471 101.938 53.8462 101.938 49.8977V37.4873C101.938 33.5388 98.7946 30.3379 94.9173 30.3379Z" fill="#C2CFE0"/>
<path d="M123 30.3379C119.123 30.3379 115.98 33.5388 115.98 37.4873V49.8977C115.98 53.8462 119.123 57.0471 123 57.0471C126.878 57.0471 130.021 53.8462 130.021 49.8977V37.4873C130.021 33.5388 126.878 30.3379 123 30.3379Z" fill="#C2CFE0"/>
<path d="M151.084 30.3379C147.207 30.3379 144.063 33.5388 144.063 37.4873V49.8977C144.063 53.8462 147.207 57.0471 151.084 57.0471C154.961 57.0471 158.104 53.8462 158.104 49.8977V37.4873C158.104 33.5388 154.961 30.3379 151.084 30.3379Z" fill="#C2CFE0"/>
<path d="M238.98 68.6027H186.993V7.14941C186.993 3.20089 183.85 0 179.973 0H66.0274C62.1501 0 59.007 3.20089 59.007 7.14941V68.6017H7.02035C3.14311 68.6017 0 71.8025 0 75.7511C0 79.6996 3.14311 82.9005 7.02035 82.9005H13.6205V228.851C13.6205 232.799 16.7636 236 20.6408 236H225.359C229.236 236 232.38 232.799 232.38 228.851V82.9005H238.98C242.857 82.9005 246 79.6996 246 75.7511C246 71.8025 242.857 68.6027 238.98 68.6027ZM157.595 221.702H129.973C130.002 221.437 130.021 221.167 130.021 220.893V210.151H157.595V221.702ZM116.027 221.702H88.4052V210.151H115.979V220.893C115.98 221.167 115.998 221.436 116.027 221.702ZM171.635 221.702V203.001C171.635 199.053 168.492 195.852 164.615 195.852H81.3849C77.5076 195.852 74.3645 199.053 74.3645 203.001V221.702H27.6612V82.9015H218.339V221.702H171.635ZM73.0477 14.2988H172.952V68.6017H73.0477V14.2988Z" fill="#C2CFE0"/>
</svg>
