<svg width="248" height="236" viewBox="0 0 248 236" fill="none" xmlns="http://www.w3.org/2000/svg">
<path d="M212 0H36C24.9727 0 16 8.5385 16 19.0323V163.677C16 174.171 24.9727 182.71 36 182.71H48V205.548C48 207.649 49.7871 209.355 52 209.355H72V232.194C72 234.294 73.7871 236 76 236H92C94.2129 236 96 234.294 96 232.194V209.355H112V232.194C112 234.294 113.787 236 116 236H132C134.213 236 136 234.294 136 232.194V209.355H152V232.194C152 234.294 153.787 236 156 236H172C174.213 236 176 234.294 176 232.194V209.355H196C198.213 209.355 200 207.649 200 205.548V182.71H212C223.027 182.71 232 174.171 232 163.677V19.0323C232 8.5385 223.027 0 212 0ZM88 228.387H80V209.355H88V228.387ZM128 228.387H120V209.355H128V228.387ZM168 228.387H160V209.355H168V228.387ZM192 201.742H56V182.71H192V201.742ZM224 163.677C224 169.973 218.615 175.097 212 175.097H36C29.3848 175.097 24 169.973 24 163.677V19.0323C24 12.7371 29.3848 7.6129 36 7.6129H212C218.615 7.6129 224 12.7371 224 19.0323V163.677Z" fill="#C2CFE0"/>
<path d="M144 106.58H132V87.5481C132 85.8345 130.801 84.3346 129.068 83.8792C127.344 83.422 125.492 84.119 124.572 85.5873L100.572 123.652C99.8279 124.828 99.8123 126.295 100.519 127.486C101.228 128.677 102.56 129.419 104 129.419H116V148.451C116 150.165 117.199 151.665 118.931 152.12C119.283 152.211 119.644 152.258 120 152.258C121.381 152.258 122.695 151.576 123.428 150.412L147.428 112.348C148.172 111.171 148.187 109.705 147.48 108.513C146.771 107.322 145.439 106.58 144 106.58ZM124 134.711V125.613C124 123.512 122.213 121.806 120 121.806H111.068L124 101.289V110.387C124 112.487 125.787 114.193 128 114.193H136.931L124 134.711Z" fill="#C2CFE0"/>
<path d="M208 15.2256H40C35.5879 15.2256 32 18.6399 32 22.8385V159.871C32 164.069 35.5879 167.484 40 167.484H208C212.412 167.484 216 164.069 216 159.871V22.8385C216 18.6399 212.412 15.2256 208 15.2256ZM40 159.871V22.8385H208L208.004 159.871H40Z" fill="#C2CFE0"/>
<path d="M68 30.4512H52C49.7871 30.4512 48 32.1574 48 34.2576V72.3221C48 74.4224 49.7871 76.1286 52 76.1286H68C70.2129 76.1286 72 74.4224 72 72.3221V34.2576C72 32.1574 70.2129 30.4512 68 30.4512ZM64 68.5157H56V38.0641H64V68.5157Z" fill="#C2CFE0"/>
<path d="M84 76.1286H100C102.213 76.1286 104 74.4224 104 72.3221V34.2576C104 32.1574 102.213 30.4512 100 30.4512H84C81.7871 30.4512 80 32.1574 80 34.2576V72.3221C80 74.4224 81.7871 76.1286 84 76.1286ZM88 38.0641H96V68.5157H88V38.0641Z" fill="#C2CFE0"/>
<path d="M164 30.4512H148C145.787 30.4512 144 32.1574 144 34.2576V72.3221C144 74.4224 145.787 76.1286 148 76.1286H164C166.213 76.1286 168 74.4224 168 72.3221V34.2576C168 32.1574 166.213 30.4512 164 30.4512ZM160 68.5157H152V38.0641H160V68.5157Z" fill="#C2CFE0"/>
<path d="M196 30.4512H180C177.787 30.4512 176 32.1574 176 34.2576V72.3221C176 74.4224 177.787 76.1286 180 76.1286H196C198.213 76.1286 200 74.4224 200 72.3221V34.2576C200 32.1574 198.213 30.4512 196 30.4512ZM192 68.5157H184V38.0641H192V68.5157Z" fill="#C2CFE0"/>
<path d="M116 76.1286H132C134.213 76.1286 136 74.4224 136 72.3221V34.2576C136 32.1574 134.213 30.4512 132 30.4512H116C113.787 30.4512 112 32.1574 112 34.2576V72.3221C112 74.4224 113.787 76.1286 116 76.1286ZM120 38.0641H128V68.5157H120V38.0641Z" fill="#C2CFE0"/>
<path d="M160 114.193H168V121.806H160V114.193Z" fill="#C2CFE0"/>
<path d="M176 114.193H184V121.806H176V114.193Z" fill="#C2CFE0"/>
<path d="M192 114.193H200V121.806H192V114.193Z" fill="#C2CFE0"/>
<path d="M48 114.193H56V121.806H48V114.193Z" fill="#C2CFE0"/>
<path d="M64 114.193H72V121.806H64V114.193Z" fill="#C2CFE0"/>
<path d="M80 114.193H88V121.806H80V114.193Z" fill="#C2CFE0"/>
</svg>
