<svg width="24" height="24" viewBox="0 0 24 24" fill="none" xmlns="http://www.w3.org/2000/svg">
<path d="M8.03317 7.33342C8.03317 5.14168 9.8081 3.36675 11.9998 3.36675C14.1916 3.36675 15.9665 5.14168 15.9665 7.33342C15.9665 9.52515 14.1916 11.3001 11.9998 11.3001C9.8081 11.3001 8.03317 9.52515 8.03317 7.33342ZM3.3665 17.8334C3.3665 17.3147 3.6208 16.8085 4.16155 16.3094C4.70705 15.806 5.4961 15.3584 6.42535 14.9861C8.285 14.2412 10.5298 13.8667 11.9998 13.8667C13.4698 13.8667 15.7147 14.2412 17.5743 14.9861C18.5036 15.3584 19.2926 15.806 19.8381 16.3094C20.3789 16.8085 20.6332 17.3147 20.6332 17.8334V20.6334H3.3665V17.8334Z" stroke="#C2CFE0" stroke-width="1.4"/>
</svg>
