<svg width="18" height="18" viewBox="0 0 18 18" fill="none" xmlns="http://www.w3.org/2000/svg">
<path d="M16.625 8.25394C16.1418 8.25394 15.75 8.69743 15.75 9.24454V9.57463H13.2632C12.7649 8.33483 11.8869 7.34096 10.7917 6.77692V4.29213C10.7917 4.10968 10.6611 3.96193 10.5 3.96193H9.9166V1.98097H13.4166C13.8999 1.98097 14.2916 1.53747 14.2916 0.990483C14.2916 0.443493 13.8999 0 13.4166 0H4.0833C3.60008 0 3.2084 0.443493 3.2084 0.990483C3.2084 1.53747 3.60008 1.98097 4.0833 1.98097H7.5834V3.96193H7C6.83893 3.96193 6.7083 4.1098 6.7083 4.29213V6.77692C5.61295 7.34096 4.73506 8.33483 4.23668 9.57475H1.75V9.24454C1.75 8.69756 1.35822 8.25418 0.875 8.25418C0.391785 8.25418 0 8.69743 0 9.24454V14.527C0 15.0742 0.391785 15.5175 0.875 15.5175C1.35822 15.5175 1.75 15.0742 1.75 14.527V14.197H4.23679C5.3598 17.0185 8.29082 18.2753 10.7835 17.004C11.8849 16.4422 12.767 15.4438 13.2632 14.197H15.75V14.527C15.75 15.0742 16.1418 15.5175 16.625 15.5175C17.1082 15.5175 17.5 15.0742 17.5 14.527V9.24454C17.5 8.69743 17.1082 8.25394 16.625 8.25394ZM3.7917 0.990483C3.7917 0.808153 3.92223 0.660281 4.0833 0.660281H13.4166C13.5778 0.660281 13.7083 0.808153 13.7083 0.990483C13.7083 1.17281 13.5778 1.32056 13.4166 1.32056H4.0833C3.92223 1.32056 3.7917 1.17281 3.7917 0.990483ZM8.1667 1.98097H9.3333V3.96193H8.1667V1.98097ZM7.2916 4.62221H10.2084V6.52169C9.25821 6.19028 8.24179 6.19028 7.2916 6.52169V4.62221ZM1.1666 14.527C1.1666 14.7095 1.03607 14.8572 0.875 14.8572C0.713928 14.8572 0.583298 14.7095 0.583298 14.527V9.24454C0.583298 9.06209 0.713928 8.91434 0.875 8.91434C1.03607 8.91434 1.1666 9.06209 1.1666 9.24454V14.527ZM1.75 13.5367V10.2349H4.01131C3.71854 11.3105 3.71854 12.461 4.01131 13.5367H1.75ZM8.75 16.8382C6.33382 16.8382 4.375 14.6209 4.375 11.8858C4.375 9.1506 6.33382 6.93338 8.75 6.93338C11.1662 6.93338 13.125 9.1506 13.125 11.8858C13.1223 14.6197 11.1651 16.8352 8.75 16.8382ZM13.4887 13.5367C13.7815 12.461 13.7815 11.3105 13.4887 10.2349H15.75V13.5367H13.4887ZM16.9167 14.527C16.9167 14.7095 16.7861 14.8572 16.625 14.8572C16.4639 14.8572 16.3334 14.7095 16.3334 14.527V9.24454C16.3334 9.06209 16.4639 8.91434 16.625 8.91434C16.7861 8.91434 16.9167 9.06209 16.9167 9.24454V14.527Z" fill="#C2CFE0"/>
</svg>
